<svg width="32" height="32" viewBox="0 0 32 32" fill="none" xmlns="http://www.w3.org/2000/svg">
<path d="M22.7153 0H9.30063C3.47373 0 0 3.472 0 9.296V22.688C0 28.528 3.47373 32 9.30063 32H22.6993C28.5262 32 31.9999 28.528 31.9999 22.704V9.296C32.016 3.472 28.5422 0 22.7153 0Z" fill="#2E1758"/>
<path d="M19.7757 20.9271L11.0729 12.2243C10.7161 11.8674 10.7161 11.2756 11.0729 10.9188C11.4297 10.562 12.0215 10.562 12.3783 10.9188L21.0812 19.6217C21.438 19.9785 21.438 20.5703 21.0812 20.9271C20.7243 21.2839 20.1325 21.2839 19.7757 20.9271Z" fill="white"/>
<path d="M21.0809 12.2243L12.3781 20.9271C12.0212 21.2839 11.4295 21.2839 11.0726 20.9271C10.7158 20.5703 10.7158 19.9785 11.0726 19.6217L19.7755 10.9188C20.1323 10.562 20.7241 10.562 21.0809 10.9188C21.4377 11.2757 21.4377 11.8675 21.0809 12.2243Z" fill="white"/>
</svg>
