<svg width="32" height="32" viewBox="0 0 32 32" fill="none" xmlns="http://www.w3.org/2000/svg">
<path d="M22.7153 0H9.30063C3.47373 0 0 3.472 0 9.296V22.688C0 28.528 3.47373 32 9.30063 32H22.6993C28.5262 32 31.9999 28.528 31.9999 22.704V9.296C32.016 3.472 28.5422 0 22.7153 0Z" fill="#2E1758"/>
<path d="M22.1536 11.3842H9.84593C9.34131 11.3842 8.92285 10.9658 8.92285 10.4612C8.92285 9.95655 9.34131 9.53809 9.84593 9.53809H22.1536C22.6582 9.53809 23.0767 9.95655 23.0767 10.4612C23.0767 10.9658 22.6582 11.3842 22.1536 11.3842Z" fill="white"/>
<path d="M22.1536 16.9233H9.84593C9.34131 16.9233 8.92285 16.5048 8.92285 16.0002C8.92285 15.4956 9.34131 15.0771 9.84593 15.0771H22.1536C22.6582 15.0771 23.0767 15.4956 23.0767 16.0002C23.0767 16.5048 22.6582 16.9233 22.1536 16.9233Z" fill="white"/>
<path d="M22.1536 22.4614H9.84593C9.34131 22.4614 8.92285 22.0429 8.92285 21.5383C8.92285 21.0337 9.34131 20.6152 9.84593 20.6152H22.1536C22.6582 20.6152 23.0767 21.0337 23.0767 21.5383C23.0767 22.0429 22.6582 22.4614 22.1536 22.4614Z" fill="white"/>
</svg>
