<svg width="19" height="18" viewBox="0 0 19 18" fill="none" xmlns="http://www.w3.org/2000/svg">
<path d="M9.14555 16.3125C4.90805 16.3125 1.45805 12.8625 1.45805 8.625C1.45805 4.3875 4.90805 0.9375 9.14555 0.9375C13.3831 0.9375 16.8331 4.3875 16.8331 8.625C16.8331 12.8625 13.3831 16.3125 9.14555 16.3125ZM9.14555 2.0625C5.52305 2.0625 2.58305 5.01 2.58305 8.625C2.58305 12.24 5.52305 15.1875 9.14555 15.1875C12.7681 15.1875 15.7081 12.24 15.7081 8.625C15.7081 5.01 12.7681 2.0625 9.14555 2.0625Z" fill="#36394A"/>
<path d="M17.0206 17.0626C16.8781 17.0626 16.7356 17.0101 16.6231 16.8976L15.1231 15.3976C14.9056 15.1801 14.9056 14.8201 15.1231 14.6026C15.3406 14.3851 15.7006 14.3851 15.9181 14.6026L17.4181 16.1026C17.6356 16.3201 17.6356 16.6801 17.4181 16.8976C17.3056 17.0101 17.1631 17.0626 17.0206 17.0626Z" fill="#36394A"/>
</svg>
