<svg width="19" height="17" viewBox="0 0 19 17" fill="none" xmlns="http://www.w3.org/2000/svg">
<path d="M17.8772 6.30452L12.4372 5.51453L10.0072 0.584526C9.96627 0.503032 9.90339 0.434583 9.82566 0.386883C9.74792 0.339182 9.65842 0.314123 9.56722 0.314526C9.47578 0.312937 9.38578 0.337504 9.30783 0.385338C9.22988 0.433171 9.16722 0.50228 9.12722 0.584526L6.69722 5.51453L1.25722 6.30452C1.16713 6.31874 1.0825 6.35685 1.01215 6.41489C0.941794 6.47293 0.888296 6.54878 0.85722 6.63453C0.830167 6.7217 0.828003 6.81471 0.850972 6.90305C0.873941 6.99139 0.921128 7.07156 0.987218 7.13453L4.91722 10.9745L3.98722 16.3945C3.97333 16.4852 3.98464 16.5779 4.01991 16.6626C4.05519 16.7472 4.11307 16.8206 4.18722 16.8745C4.26321 16.9236 4.35175 16.9497 4.44222 16.9497C4.53268 16.9497 4.62123 16.9236 4.69722 16.8745L9.56722 14.3545L14.4272 16.9045C14.4978 16.9431 14.5768 16.9637 14.6572 16.9645C14.7607 16.964 14.8617 16.9327 14.9472 16.8745C15.0213 16.8209 15.0786 16.7473 15.1122 16.6622C15.1459 16.5772 15.1546 16.4843 15.1372 16.3945L14.2072 10.9745L18.1472 7.13453C18.2116 7.07048 18.2569 6.98982 18.2781 6.90153C18.2993 6.81324 18.2955 6.7208 18.2672 6.63453C18.2389 6.54897 18.1874 6.4729 18.1186 6.41468C18.0498 6.35645 17.9663 6.31834 17.8772 6.30452Z" fill="black"/>
</svg>
